<?xml version="1.0" encoding="utf-8"?>
<!-- Generator: Adobe Illustrator 19.2.0, SVG Export Plug-In . SVG Version: 6.00 Build 0)  -->
<svg version="1.1" id="Layer_1" xmlns="http://www.w3.org/2000/svg" xmlns:xlink="http://www.w3.org/1999/xlink" x="0px" y="0px"
	 viewBox="0 0 50 50" style="enable-background:new 0 0 50 50;" xml:space="preserve">
<style type="text/css">
	.st0{fill:#FFFFFF;}
</style>
<path class="st0" d="M38.9,42.9l-3.4-0.2C41.7,39,45.5,32.3,45.5,25c0-11.6-9.6-20.9-21.3-20.5C13.7,4.8,4.9,13.6,4.5,24.2
	C4.2,32.4,8.7,40,16.1,43.5c0.5,0.2,1.1,0,1.3-0.5l0,0c0.2-0.5,0-1.1-0.5-1.3C10.5,38.6,6.5,32.1,6.5,25C6.5,14.1,15.9,5.4,27,6.6
	c8.7,0.9,15.7,8.1,16.5,16.9c0.6,7.3-3.1,14.1-9.3,17.7c0,0,0,0,0,0l0.2-3.4c0-0.6-0.4-1-0.9-1.1c-0.6,0-1,0.4-1.1,0.9L32,43.4
	c0,0.3,0.1,0.5,0.2,0.7s0.4,0.3,0.7,0.3l5.8,0.4c0,0,0,0,0.1,0c0.5,0,1-0.4,1-0.9C39.9,43.4,39.5,42.9,38.9,42.9z"/>
</svg>
