<svg id="Layer_1" data-name="Layer 1" xmlns="http://www.w3.org/2000/svg" viewBox="0 0 32 32"><defs><style>.cls-1{fill:none;stroke:#37e2ae;stroke-linejoin:round;stroke-width:1.3px;}.cls-2,.cls-3{fill:#37e2ae;}.cls-3{opacity:0.3;}</style></defs><title>heart</title><path class="cls-1" d="M24.52,14.15c0,.11.46,5.67-8.28,10l-.24.09-.24-.09c-8.74-4.31-8.28-9.87-8.28-10A4.39,4.39,0,0,1,16,12.68a4.39,4.39,0,0,1,8.52,1.47Z"/><path class="cls-2" d="M9.68,19.59s3.27,1.65,6.27.65a5.71,5.71,0,0,1,5.13.67l-5.13,3.33Z"/><path class="cls-3" d="M8.49,17.85a6.93,6.93,0,0,1,7-.11c4,2,4.35,2.52,7.67.76l-1.67,2.24-7,1L10.7,21Z"/></svg>