<svg id="Layer_1" data-name="Layer 1" xmlns="http://www.w3.org/2000/svg" viewBox="0 0 32 32"><defs><style>.cls-1{fill:none;stroke:#37e2ae;stroke-linejoin:round;stroke-width:1.3px;}.cls-2,.cls-3{fill:#37e2ae;}.cls-3{opacity:0.3;}</style></defs><title>heart</title><path class="cls-1" d="M24.53,14.16c0,.11.46,5.67-8.28,10l-.24.09-.24-.09C7,19.83,7.5,14.27,7.5,14.16A4.39,4.39,0,0,1,16,12.69a4.39,4.39,0,0,1,8.52,1.47Z"/><path class="cls-2" d="M9.69,19.6S13,21.25,16,20.25a5.71,5.71,0,0,1,5.13.67L16,24.25Z"/><path class="cls-2" d="M8.51,17.86a6.93,6.93,0,0,1,7-.11c4,2,4.35,2.52,7.67.76l-1.67,2.24-7,1-3.75-.69Z"/><path class="cls-2" d="M24.46,16.75s-5-3-8-1-9-2-9-2l1,5,6.65,2.91,7.35-1.91Z"/><path class="cls-2" d="M7.5,14.16a10.61,10.61,0,0,1,9-.41c5,2,8-1,8-1v4l-5,2L9.69,17.16Z"/><polygon class="cls-3" points="7.46 13.75 8.46 15.75 24.54 14.75 23.59 11.44 20.46 9.75 16.92 11.13 15.82 12.33 13.46 9.75 10.18 10.12 7.46 13.75"/></svg>