<?xml version="1.0" encoding="UTF-8"?>
<svg width="14px" height="18px" viewBox="0 0 14 18" version="1.1" xmlns="http://www.w3.org/2000/svg" xmlns:xlink="http://www.w3.org/1999/xlink">
    <!-- Generator: Sketch 47.1 (45422) - http://www.bohemiancoding.com/sketch -->
    <title>gnb_logout</title>
    <desc>Created with Sketch.</desc>
    <defs></defs>
    <g id="Page-1" stroke="none" stroke-width="1" fill="none" fill-rule="evenodd">
        <g id="asset" transform="translate(-151.000000, -50.000000)" fill="#999999">
            <g id="gnb" transform="translate(50.000000, 50.000000)">
                <g id="gnb_logout" transform="translate(101.000000, 0.000000)">
                    <g transform="translate(1.000000, 1.000000)">
                        <path d="M11.076974,13.7563 C11.076974,14.4743 10.504191,15.0583 9.79998173,15.0583 L2.20079906,15.0583 C1.49560903,15.0583 0.922826032,14.4743 0.922826032,13.7563 L0.922826032,6.0083 C0.922826032,5.2903 1.49560903,4.7063 2.20079906,4.7063 L9.79998173,4.7063 C10.504191,4.7063 11.076974,5.2903 11.076974,6.0083 L11.076974,13.7563 Z M9.79998173,3.7643 L3.38461598,3.7643 L3.38461598,3.6083 C3.38461598,2.1373 4.55764418,0.9413 6.0003904,0.9413 C6.76638958,0.9413 7.49315705,1.2863 7.99434217,1.8883 C8.15911537,2.0853 8.44943004,2.1103 8.6455886,1.9423 C8.83880478,1.7743 8.8633246,1.4773 8.69855141,1.2783 C8.02180437,0.4663 7.03806919,0.0003 6.0003904,0.0003 C4.04861271,0.0003 2.46168995,1.6183 2.46168995,3.6083 L2.46168995,3.7643 L2.20079906,3.7643 C0.986577564,3.7643 -0.0001,4.7713 -0.0001,6.0083 L-0.0001,13.7563 C-0.0001,14.9933 0.986577564,16.0003 2.20079906,16.0003 L9.79998173,16.0003 C11.0132224,16.0003 11.9999,14.9933 11.9999,13.7563 L11.9999,6.0083 C11.9999,4.7713 11.0132224,3.7643 9.79998173,3.7643 L9.79998173,3.7643 Z" id="Fill-1"></path>
                        <path d="M6,10.2070785 C5.62369641,10.2070785 5.31778679,9.8975599 5.31778679,9.51681688 C5.31778679,9.13695318 5.62369641,8.8274346 6,8.8274346 C6.37630359,8.8274346 6.68221321,9.13695318 6.68221321,9.51681688 C6.68221321,9.8975599 6.37630359,10.2070785 6,10.2070785 M6,8 C5.17265353,8 4.5,8.68058914 4.5,9.51681688 C4.5,10.2097164 4.96407879,10.7883051 5.59067207,10.9703231 L5.59067207,11.585843 C5.59067207,11.8144647 5.77404403,12 6,12 C6.22595597,12 6.40932793,11.8144647 6.40932793,11.585843 L6.40932793,10.9703231 C7.03592121,10.7883051 7.5,10.2097164 7.5,9.51681688 C7.5,8.68058914 6.82734647,8 6,8" id="Fill-4"></path>
                    </g>
                </g>
            </g>
        </g>
    </g>
</svg>