<?xml version="1.0" encoding="UTF-8"?>
<svg width="18px" height="18px" viewBox="0 0 18 18" version="1.1" xmlns="http://www.w3.org/2000/svg" xmlns:xlink="http://www.w3.org/1999/xlink">
    <!-- Generator: Sketch 47.1 (45422) - http://www.bohemiancoding.com/sketch -->
    <title>gnb_setting</title>
    <desc>Created with Sketch.</desc>
    <defs></defs>
    <g id="Page-1" stroke="none" stroke-width="1" fill="none" fill-rule="evenodd">
        <g id="asset" transform="translate(-171.000000, -50.000000)" fill="#999999">
            <g id="gnb" transform="translate(50.000000, 50.000000)">
                <g id="gnb_setting" transform="translate(121.000000, 0.000000)">
                    <g transform="translate(1.000000, 1.000000)">
                        <path d="M13.855,12.374 L11.977,11.683 C11.816,11.624 11.636,11.656 11.507,11.768 C10.993,12.209 10.404,12.545 9.756,12.765 C9.592,12.821 9.472,12.962 9.443,13.133 L9.124,15.059 L6.978,15.059 L6.664,13.168 C6.635,12.994 6.511,12.851 6.343,12.797 C5.69,12.589 5.094,12.265 4.572,11.833 C4.442,11.727 4.266,11.696 4.109,11.754 L2.196,12.458 L1.138,10.693 L2.674,9.492 C2.815,9.381 2.881,9.199 2.844,9.023 C2.772,8.688 2.736,8.344 2.736,8 C2.736,7.694 2.766,7.384 2.825,7.076 C2.859,6.903 2.793,6.725 2.653,6.617 L1.088,5.391 L2.145,3.626 L4.023,4.317 C4.183,4.375 4.363,4.344 4.493,4.232 C5.007,3.791 5.596,3.455 6.244,3.235 C6.408,3.179 6.528,3.038 6.557,2.867 L6.876,0.941 L9.022,0.941 L9.336,2.832 C9.365,3.006 9.489,3.149 9.657,3.203 C10.31,3.411 10.906,3.735 11.428,4.167 C11.557,4.272 11.734,4.302 11.891,4.245 L13.804,3.541 L14.862,5.307 L13.326,6.508 C13.185,6.619 13.119,6.801 13.156,6.977 C13.228,7.312 13.264,7.656 13.264,8 C13.264,8.306 13.234,8.616 13.175,8.924 C13.141,9.097 13.207,9.275 13.347,9.383 L14.912,10.609 L13.855,12.374 Z M15.819,10.124 L14.147,8.815 C14.185,8.543 14.205,8.27 14.205,8 C14.205,7.69 14.18,7.379 14.131,7.073 L15.769,5.791 C15.956,5.645 16.004,5.383 15.882,5.179 L14.41,2.723 C14.294,2.529 14.057,2.444 13.844,2.523 L11.813,3.271 C11.327,2.905 10.793,2.613 10.218,2.401 L9.885,0.394 C9.848,0.166 9.651,0 9.421,0 L6.478,0 C6.247,0 6.051,0.166 6.013,0.394 L5.673,2.441 C5.104,2.664 4.574,2.965 4.096,3.341 L2.105,2.608 C1.892,2.529 1.654,2.613 1.539,2.808 L0.067,5.264 C-0.055,5.467 -0.006,5.729 0.181,5.876 L1.854,7.185 C1.815,7.457 1.795,7.729 1.795,8 C1.795,8.31 1.82,8.62 1.869,8.926 L0.231,10.208 C0.044,10.354 -0.004,10.617 0.118,10.821 L1.59,13.276 C1.706,13.471 1.943,13.555 2.156,13.477 L4.188,12.729 C4.673,13.095 5.207,13.387 5.782,13.599 L6.115,15.606 C6.152,15.833 6.349,16 6.579,16 L9.522,16 C9.753,16 9.949,15.833 9.987,15.606 L10.327,13.559 C10.897,13.336 11.426,13.034 11.904,12.659 L13.895,13.392 C14.105,13.471 14.345,13.386 14.461,13.192 L15.933,10.736 C16.055,10.533 16.006,10.27 15.819,10.124 L15.819,10.124 Z" id="Fill-1"></path>
                        <path d="M8,9.4116 C7.222,9.4116 6.588,8.7786 6.588,7.9996 C6.588,7.2216 7.222,6.5886 8,6.5886 C8.778,6.5886 9.412,7.2216 9.412,7.9996 C9.412,8.7786 8.778,9.4116 8,9.4116 M8,5.6466 C6.703,5.6466 5.647,6.7026 5.647,7.9996 C5.647,9.2976 6.703,10.3526 8,10.3526 C9.297,10.3526 10.353,9.2976 10.353,7.9996 C10.353,6.7026 9.297,5.6466 8,5.6466" id="Fill-3"></path>
                    </g>
                </g>
            </g>
        </g>
    </g>
</svg>