<?xml version="1.0" encoding="UTF-8"?>
<svg width="18px" height="18px" viewBox="0 0 18 18" version="1.1" xmlns="http://www.w3.org/2000/svg" xmlns:xlink="http://www.w3.org/1999/xlink">
    <!-- Generator: Sketch 47.1 (45422) - http://www.bohemiancoding.com/sketch -->
    <title>icn_setting</title>
    <desc>Created with Sketch.</desc>
    <defs></defs>
    <g id="Page-1" stroke="none" stroke-width="1" fill="none" fill-rule="evenodd">
        <g id="asset" transform="translate(-226.000000, -124.000000)" fill="#AAAAAA">
            <g id="icon" transform="translate(50.000000, 83.000000)">
                <g id="icn_setting" transform="translate(176.000000, 41.000000)">
                    <g transform="translate(1.000000, 1.000000)" id="Page-1">
                        <path d="M11.019519,7.94805195 C11.019519,9.58337662 9.64348107,10.9090909 7.94608002,10.9090909 C6.24867896,10.9090909 4.872641,9.58337662 4.872641,7.94805195 C4.872641,6.31272727 6.24867896,4.98701299 7.94608002,4.98701299 C9.64348107,4.98701299 11.019519,6.31272727 11.019519,7.94805195 L11.019519,7.94805195 Z M13.9890003,9.07636364 C14.0561846,8.72727273 14.0929581,8.3678961 14.0929581,8 C14.0929581,7.59168831 14.0494985,7.19324675 13.9671088,6.80851948 L15.94608,5.25974026 L14.3824005,2.65038961 L11.9610698,3.54161039 C11.3664402,3.05080519 10.6729214,2.66877922 9.91275747,2.4265974 L9.50975952,0 L6.38240052,0 L5.97325569,2.46379221 C5.21880729,2.72020779 4.53262159,3.11522078 3.94758978,3.61776623 L1.5636795,2.74025974 L0,5.34961039 L2.01099968,6.92363636 C1.94381538,7.27272727 1.90704195,7.6321039 1.90704195,8 C1.90704195,8.40831169 1.95050146,8.80675325 2.03289119,9.19148052 L0.0539199827,10.7402597 L1.61759948,13.3496104 L4.03893023,12.4583896 C4.6335598,12.9491948 5.32707862,13.3312208 6.08724253,13.5734026 L6.49024048,16 L9.61759948,16 L10.0267443,13.5362078 C10.7811927,13.2797922 11.4673784,12.8847792 12.0524102,12.3822338 L14.4363205,13.2597403 L16,10.6503896 L13.9890003,9.07636364 Z"></path>
                    </g>
                </g>
            </g>
        </g>
    </g>
</svg>