<?xml version="1.0" encoding="UTF-8"?>
<svg width="22px" height="22px" viewBox="0 0 22 22" version="1.1" xmlns="http://www.w3.org/2000/svg" xmlns:xlink="http://www.w3.org/1999/xlink">
    <!-- Generator: Sketch 47.1 (45422) - http://www.bohemiancoding.com/sketch -->
    <title>icn_photo</title>
    <desc>Created with Sketch.</desc>
    <defs></defs>
    <g id="Page-1" stroke="none" stroke-width="1" fill="none" fill-rule="evenodd">
        <g id="asset" transform="translate(-110.000000, -170.000000)" fill="#D8D8D8">
            <g id="icon" transform="translate(50.000000, 83.000000)">
                <g id="icn_photo" transform="translate(60.000000, 87.000000)">
                    <g transform="translate(1.000000, 1.000000)">
                        <path d="M16,2.42299864 C16,1.08480326 14.8491228,0 13.4294197,0 L6.5705803,0 C5.15087719,0 4,1.08480326 4,2.42299864 L4,3 L16,3 L16,2.42299864 Z" id="Fill-4"></path>
                        <path d="M17.1289,7.35095648 C16.7189,7.35095648 16.3859,7.02111063 16.3859,6.61499412 C16.3859,6.20887761 16.7189,5.88002229 17.1289,5.88002229 C17.5389,5.88002229 17.8709,6.20887761 17.8709,6.61499412 C17.8709,7.02111063 17.5389,7.35095648 17.1289,7.35095648 M9.9999,16.4667864 C7.5099,16.4667864 5.4899,14.4669102 5.4899,11.9995047 C5.4899,9.53308983 7.5099,7.53321364 9.9999,7.53321364 C12.4899,7.53321364 14.5099,9.53308983 14.5099,11.9995047 C14.5099,14.4669102 12.4899,16.4667864 9.9999,16.4667864 M17.6299,4 L2.3699,4 C1.0619,4 -0.0001,5.05095029 -0.0001,6.34755154 L-0.0001,17.6524485 C-0.0001,18.9480592 1.0619,20 2.3699,20 L17.6299,20 C18.9389,20 19.9999,18.9480592 19.9999,17.6524485 L19.9999,6.34755154 C19.9999,5.05095029 18.9389,4 17.6299,4" id="Fill-6"></path>
                        <path d="M10.014,9.25 C8.488,9.25 7.25,10.487 7.25,12.014 C7.25,13.54 8.488,14.777 10.014,14.777 C11.54,14.777 12.778,13.54 12.778,12.014 C12.778,10.487 11.54,9.25 10.014,9.25" id="Fill-8"></path>
                    </g>
                </g>
            </g>
        </g>
    </g>
</svg>