<?xml version="1.0" encoding="UTF-8"?>
<svg width="24px" height="24px" viewBox="0 0 24 24" version="1.1" xmlns="http://www.w3.org/2000/svg" xmlns:xlink="http://www.w3.org/1999/xlink">
    <!-- Generator: Sketch 47.1 (45422) - http://www.bohemiancoding.com/sketch -->
    <title>icn_verify</title>
    <desc>Created with Sketch.</desc>
    <defs></defs>
    <g id="Page-1" stroke="none" stroke-width="1" fill="none" fill-rule="evenodd">
        <g id="asset" transform="translate(-176.000000, -169.000000)" fill="#B6E335">
            <g id="icon" transform="translate(50.000000, 83.000000)">
                <g id="icn_verify" transform="translate(126.000000, 86.000000)">
                    <g transform="translate(1.000000, 1.000000)" id="Group">
                        <g>
                            <path d="M11,22 C4.92522611,22 0,17.0747739 0,11 C0,4.92522611 4.92522611,0 11,0 C17.075631,0 22,4.92479416 22,11 C22,17.0752058 17.075631,22 11,22 Z M11,21 C16.5233381,21 21,16.5229516 21,11 C21,5.47704844 16.5233381,1 11,1 C5.47752482,1 1,5.47752482 1,11 C1,16.5224752 5.47752482,21 11,21 Z" id="Stroke-1" fill-rule="nonzero"></path>
                            <polygon id="Stroke-3" fill-rule="nonzero" points="5.35693106 10.021151 4.64306894 10.7214373 9.36600136 15.5359289 17.5483769 7.35355339 16.8412701 6.64644661 9.37282217 14.1148946"></polygon>
                        </g>
                    </g>
                </g>
            </g>
        </g>
    </g>
</svg>