<?xml version="1.0" encoding="UTF-8"?>
<svg width="20px" height="21px" viewBox="0 0 20 21" version="1.1" xmlns="http://www.w3.org/2000/svg" xmlns:xlink="http://www.w3.org/1999/xlink">
    <!-- Generator: Sketch 47 (45396) - http://www.bohemiancoding.com/sketch -->
    <title>Group</title>
    <desc>Created with Sketch.</desc>
    <defs></defs>
    <g id="Symbols" stroke="none" stroke-width="1" fill="none" fill-rule="evenodd">
        <g id="camera" transform="translate(-7.000000, -6.000000)" fill="#666666">
            <g id="Page-1">
                <g id="Group" transform="translate(7.000000, 6.000000)">
                    <path d="M15.5576,3.0979 C15.5576,1.7829 14.4916,0.7169 13.1766,0.7169 L6.8236,0.7169 C5.5086,0.7169 4.4426,1.7829 4.4426,3.0979 L4.4426,3.6649 L15.5576,3.6649 L15.5576,3.0979 Z" id="Fill-4"></path>
                    <path d="M17.1289,7.9465 C16.7189,7.9465 16.3859,7.6135 16.3859,7.2035 C16.3859,6.7935 16.7189,6.4615 17.1289,6.4615 C17.5389,6.4615 17.8709,6.7935 17.8709,7.2035 C17.8709,7.6135 17.5389,7.9465 17.1289,7.9465 M9.9999,17.1495 C7.5099,17.1495 5.4899,15.1305 5.4899,12.6395 C5.4899,10.1495 7.5099,8.1305 9.9999,8.1305 C12.4899,8.1305 14.5099,10.1495 14.5099,12.6395 C14.5099,15.1305 12.4899,17.1495 9.9999,17.1495 M17.6299,4.5635 L2.3699,4.5635 C1.0619,4.5635 -0.0001,5.6245 -0.0001,6.9335 L-0.0001,18.3465 C-0.0001,19.6545 1.0619,20.7165 2.3699,20.7165 L17.6299,20.7165 C18.9389,20.7165 19.9999,19.6545 19.9999,18.3465 L19.9999,6.9335 C19.9999,5.6245 18.9389,4.5635 17.6299,4.5635" id="Fill-6"></path>
                    <path d="M10,9.8762 C8.474,9.8762 7.236,11.1132 7.236,12.6402 C7.236,14.1662 8.474,15.4032 10,15.4032 C11.526,15.4032 12.764,14.1662 12.764,12.6402 C12.764,11.1132 11.526,9.8762 10,9.8762" id="Fill-8"></path>
                </g>
            </g>
        </g>
    </g>
</svg>