<?xml version="1.0" encoding="UTF-8"?>
<svg width="22px" height="26px" viewBox="0 0 22 26" version="1.1" xmlns="http://www.w3.org/2000/svg" xmlns:xlink="http://www.w3.org/1999/xlink">
    <!-- Generator: Sketch 47.1 (45422) - http://www.bohemiancoding.com/sketch -->
    <title>icn_scrap</title>
    <desc>Created with Sketch.</desc>
    <defs></defs>
    <g id="Page-1" stroke="none" stroke-width="1" fill="none" fill-rule="evenodd">
        <g id="asset" transform="translate(-82.000000, -170.000000)" fill-rule="nonzero" fill="#BBBBBB">
            <g id="icon" transform="translate(50.000000, 83.000000)">
                <g id="icn_scrap" transform="translate(32.000000, 87.000000)">
                    <g id="btn_scrap" transform="translate(1.000000, 1.000000)">
                        <path d="M1.70710678,23.7278075 C1.07714192,24.3092687 0,23.8974541 0,23.0751438 L0,0.923005754 C0,0.413243752 0.44771525,0 1,0 L19,0 C19.5522847,0 20,0.413243752 20,0.923005754 L20,23.0751438 C20,23.8974541 18.9228581,24.3092687 18.2928932,23.7278075 L10,16.0734193 L1.70710678,23.7278075 Z M2,1.84601151 L2,20.8468108 L9.29289322,14.1154284 C9.68341751,13.7549723 10.3165825,13.7549723 10.7071068,14.1154284 L18,20.8468108 L18,1.84601151 L2,1.84601151 Z" id="scrap"></path>
                    </g>
                </g>
            </g>
        </g>
    </g>
</svg>