<?xml version="1.0" encoding="UTF-8"?>
<svg width="18px" height="10px" viewBox="0 0 18 10" version="1.1" xmlns="http://www.w3.org/2000/svg" xmlns:xlink="http://www.w3.org/1999/xlink">
    <!-- Generator: Sketch 47.1 (45422) - http://www.bohemiancoding.com/sketch -->
    <title>icn_blind</title>
    <desc>Created with Sketch.</desc>
    <defs></defs>
    <g id="Page-1" stroke="none" stroke-width="1" fill="none" fill-rule="evenodd">
        <g id="asset" transform="translate(-274.000000, -124.000000)" fill="#BBBBBB">
            <g id="icon" transform="translate(50.000000, 83.000000)">
                <g id="icn_blind" transform="translate(224.000000, 41.000000)">
                    <g transform="translate(1.000000, 1.000000)">
                        <path d="M13.5467599,0.154579078 L15.6509568,0.578583812 C15.8844682,0.625695449 16.0371154,0.861698084 15.9921428,1.10570081 C15.9527919,1.32125877 15.7720368,1.47103822 15.5700927,1.47103822 C15.5432821,1.47103822 15.5160391,1.46837152 15.4887961,1.46303813 L13.3759506,1.0372556 C13.1264394,1.95859922 12.6676328,2.78660846 12.0553141,3.46350491 L13.688164,5.25685826 C13.8524868,5.43730472 13.845568,5.72219679 13.6734614,5.89375426 C13.5904352,5.9768663 13.4836253,6.01775565 13.3768155,6.01775565 C13.2635192,6.01775565 13.150223,5.97108846 13.065467,5.87819853 L11.4170497,4.0679561 C10.5777061,4.74929704 9.55068847,5.18574636 8.43026632,5.27552514 L8.43026632,7.54977275 C8.43026632,7.79866442 8.23783565,8 8,8 C7.76259677,8 7.57016611,7.79866442 7.57016611,7.54977275 L7.57016611,5.27552514 C6.44931153,5.18574636 5.42229393,4.74929704 4.58295029,4.0679561 L2.93453299,5.87819853 C2.85020944,5.97108846 2.73648075,6.01775565 2.62318449,6.01775565 C2.51680709,6.01775565 2.40999726,5.9768663 2.32653857,5.89375426 C2.15443204,5.72219679 2.14794561,5.43730472 2.31226843,5.25685826 L3.9451183,3.46350491 C3.33236717,2.78660846 2.87356057,1.95859922 2.62404935,1.0372556 L0.511636311,1.46303813 C0.483960889,1.46837152 0.456717896,1.47103822 0.429907331,1.47103822 C0.227963239,1.47103822 0.0476405701,1.32125877 0.00785715154,1.10570081 C-0.0371154086,0.861698084 0.115531839,0.625695449 0.349043209,0.578583812 L2.45367254,0.154579078 C3.26836776,-0.104979375 3.31723218,0.154579078 3.31723218,0.154579078 C3.64674267,2.55060583 5.62121103,4.39773756 8,4.39773756 C10.4164102,4.39773756 12.415527,2.49193851 12.6979028,0.04080003 C12.6979028,0.04080003 12.7316322,-0.104979375 13.5467599,0.154579078"></path>
                    </g>
                </g>
            </g>
        </g>
    </g>
</svg>