<?xml version="1.0" encoding="UTF-8"?>
<svg width="21px" height="24px" viewBox="0 0 21 24" version="1.1" xmlns="http://www.w3.org/2000/svg" xmlns:xlink="http://www.w3.org/1999/xlink">
    <!-- Generator: Sketch 46.2 (44496) - http://www.bohemiancoding.com/sketch -->
    <title>Combined Shape</title>
    <desc>Created with Sketch.</desc>
    <defs></defs>
    <g id="Symbols" stroke="none" stroke-width="1" fill="none" fill-rule="evenodd" stroke-linecap="round" stroke-linejoin="round">
        <g id="gnb" transform="translate(-1740.000000, -19.000000)" stroke="#CCCCCC">
            <g transform="translate(1.000000, 0.000000)" id="Group-3">
                <g transform="translate(1740.000000, 16.000000)">
                    <g id="Group-7" transform="translate(-1.000000, 3.000000)">
                        <path d="M3,16.8610924 L3,11.0660501 C3,11.0660501 2.99188559,4.53899058 8.50780386,3.22854654 C8.50263786,3.16857353 8.5,3.10785779 8.5,3.04651163 C8.5,1.91625447 9.3954305,1 10.5,1 C11.6045695,1 12.5,1.91625447 12.5,3.04651163 C12.5,3.09612283 12.4982748,3.14532172 12.4948825,3.19404891 C18.1447878,4.40509907 18.1357266,10.9050463 18.1357266,10.9050463 L18.1357266,16.8687948 C19.1809832,16.9623233 20,17.8322045 20,18.9069767 C20,20.0372339 19.0835905,20.9534884 17.9486148,20.9534884 L12.5,20.9534884 C12.5,22.0837455 11.6045695,23 10.5,23 C9.3954305,23 8.5,22.0837455 8.5,20.9534884 L3.05138522,20.9534884 C1.91843645,20.9534884 1,20.0451139 1,18.9069767 C1,17.7938274 1.88887742,16.8882515 3,16.8610924 Z" id="Combined-Shape"></path>
                    </g>
                </g>
            </g>
        </g>
    </g>
</svg>