<?xml version="1.0" encoding="UTF-8"?>
<svg width="32px" height="36px" viewBox="0 0 32 36" version="1.1" xmlns="http://www.w3.org/2000/svg" xmlns:xlink="http://www.w3.org/1999/xlink">
    <!-- Generator: Sketch 47.1 (45422) - http://www.bohemiancoding.com/sketch -->
    <title>icn_transform</title>
    <desc>Created with Sketch.</desc>
    <defs></defs>
    <g id="Page-1" stroke="none" stroke-width="1" fill="none" fill-rule="evenodd">
        <g id="asset" transform="translate(-138.000000, -170.000000)" fill="#D8D8D8">
            <g id="icon" transform="translate(50.000000, 83.000000)">
                <g id="icn_transform-icn_tranceform" transform="translate(88.000000, 87.000000)">
                    <g id="icn_transform" transform="translate(1.000000, 1.000000)">
                        <path d="M18.018995,4.0391 L18.4569366,5.3121 L22.4803995,3.9301 L20.9546032,0.0001 L19.6987708,0.4871 L20.3856791,2.2561 C16.4402057,0.8081 12.0677893,1.0121 8.30229193,2.8411 C4.20583869,4.8271 1.20323945,8.4971 0.0623917258,12.9091 L0.0004,13.1511 L1.30422598,13.4891 L1.36721757,13.2471 C2.40707877,9.2191 5.14971271,5.8671 8.89021346,4.0521 C12.2657629,2.4141 16.1802404,2.2051 19.7307665,3.4501 L18.018995,4.0391 Z" id="Fill-1"></path>
                        <path d="M28.702439,19 L28.6634146,19.241777 C28.0195122,23.2792557 25.6604878,26.8105753 22.1921951,28.9295636 C19.0614634,30.8401913 15.2790244,31.4053204 11.715122,30.511925 L13.3239024,29.7797143 L12.7834146,28.5718123 L9,30.2937361 L10.84,34 L12.0156098,33.4093173 L11.1980488,31.7620888 C13.257561,32.3085441 15.4243902,32.4137072 17.5004878,32.0697156 C19.4039024,31.7522605 21.2117073,31.0760713 22.8721951,30.0608046 C26.6712195,27.7423011 29.2546341,23.8748526 29.9609756,19.4530861 L30,19.2103263 L28.702439,19 Z" id="Fill-3"></path>
                        <path d="M12.7217,11.6093 C13.1937,11.0113 13.9537,10.7093 14.9817,10.7093 C15.8557,10.7093 16.5727,10.9953 17.1127,11.5603 C17.6617,12.1383 17.8637,12.8223 17.7107,13.5943 C17.5457,14.4783 17.1197,15.0903 16.4437,15.4133 C15.9317,15.6573 15.6827,16.0733 15.6827,16.6863 L15.6827,17.9533 L14.1567,17.9533 L14.1567,16.7163 C14.1567,15.7283 14.4997,15.0353 15.1777,14.6563 C15.7107,14.3593 16.0197,13.9723 16.1217,13.4743 C16.1837,13.1503 16.1117,12.8563 15.9007,12.5773 C15.6967,12.3053 15.3787,12.1733 14.9297,12.1733 C14.4547,12.1733 14.1197,12.2933 13.9077,12.5393 C13.6897,12.7913 13.5957,13.1053 13.6197,13.5003 L13.6357,13.7643 L12.1087,13.7643 L12.0937,13.5303 C12.0497,12.8393 12.2607,12.1933 12.7217,11.6093 L12.7217,11.6093 Z M14.0127,20.2313 L15.8467,20.2313 L15.8467,18.4373 L14.0127,18.4373 L14.0127,20.2313 Z M21.0027,25.5713 L22.2507,25.5713 C22.6567,25.5713 22.9867,25.2413 22.9867,24.8353 L22.9867,23.7893 L22.9867,22.7503 C22.9867,22.6773 22.9767,22.6073 22.9667,22.6013 C22.8417,20.1763 21.6627,17.9893 19.7197,16.5543 C20.7437,15.3903 21.3047,13.9203 21.3047,12.3823 C21.3047,10.6933 20.6397,9.1593 19.5637,8.0173 C18.4007,6.7833 16.7557,6.0073 14.9307,6.0073 C12.7517,6.0073 10.8257,7.1083 9.6757,8.7813 C8.9707,9.8063 8.5557,11.0473 8.5557,12.3823 C8.5557,13.9203 9.1177,15.3903 10.1407,16.5543 C8.1977,17.9893 7.0197,20.1743 6.9047,22.5413 C6.8847,22.6073 6.8737,22.6773 6.8737,22.7503 L6.8737,22.8013 L6.8737,24.8353 C6.8737,25.2413 7.2037,25.5713 7.6097,25.5713 L9.6117,25.5713 L21.0027,25.5713 Z" id="Fill-6"></path>
                    </g>
                </g>
            </g>
        </g>
    </g>
</svg>