<?xml version="1.0" encoding="UTF-8"?>
<svg width="64px" height="102px" viewBox="0 0 64 102" version="1.1" xmlns="http://www.w3.org/2000/svg" xmlns:xlink="http://www.w3.org/1999/xlink">
    <!-- Generator: Sketch 47.1 (45422) - http://www.bohemiancoding.com/sketch -->
    <title>icn_none</title>
    <desc>Created with Sketch.</desc>
    <defs></defs>
    <g id="Page-1" stroke="none" stroke-width="1" fill="none" fill-rule="evenodd">
        <g id="asset" transform="translate(-50.000000, -303.000000)">
            <g id="img" transform="translate(50.000000, 302.000000)">
                <g id="img_question" transform="translate(0.000000, 1.000000)">
                    <g id="img_none" transform="translate(1.000000, 1.000000)">
                        <path d="M1.84434647,26.3445204 C3.21403612,22.4665006 5.13453573,19.1055501 7.60251109,16.2609957 C10.0698196,13.4171145 13.046594,11.1993719 16.5328343,9.60372833 C20.0177409,8.01010457 23.9160883,7.21228278 28.2258762,7.21228278 C33.7866561,7.21228278 38.4285303,8.05252041 42.1501652,9.73299566 C45.8697995,11.4134709 48.8672459,13.503966 51.1398371,16.0031343 C53.4110947,18.5036491 55.0361841,21.1960452 56.0164391,24.0823422 C56.9946936,26.970659 57.4848211,29.6637283 57.4848211,32.1622234 C57.4848211,36.2987778 56.9946936,39.704164 56.0164391,42.3750155 C55.0361841,45.0465402 53.8218682,47.3316095 52.3734914,49.2261838 C50.9237809,51.1227778 49.3180299,52.7386194 47.5555714,54.0737085 C45.7931129,55.4108174 44.128013,56.7459065 42.5616056,58.0809957 C40.9931975,59.4187778 39.6035027,60.9477679 38.3905205,62.670659 C37.2302186,64.3154511 36.482024,66.3507382 36.1452697,68.7792135 C36.1125945,69.0128372 36.0985909,69.2531937 36.0985909,69.4895105 C36.0985909,72.0061838 34.2441085,74.046857 31.9561799,74.046857 L24.3768749,74.046857 C22.0889463,74.046857 20.2351307,72.0061838 20.2351307,69.4895105 L20.2351307,68.4183422 C20.2351307,68.2924412 20.2391318,68.1638471 20.2478007,68.0379462 C20.492531,64.4177877 21.1340313,61.3793323 22.173635,58.9212333 C23.2305767,56.4227382 24.4655646,54.2898273 25.8752647,52.5225006 C27.2849647,50.7571937 28.7726851,49.2261838 30.3404263,47.9335105 C31.9068338,46.6408372 33.3552105,45.348164 34.6888908,44.0554907 C36.0199038,42.7621442 37.0968506,41.3402036 37.9203982,39.7889957 C38.7426121,38.2377877 39.114042,36.2987778 39.0360217,33.971966 C39.0360217,30.0084412 38.1551259,27.0777085 36.3926674,25.1811145 C34.6295421,23.2865402 32.1802382,22.3372333 29.0480901,22.3372333 C26.9328731,22.3372333 25.1117327,22.7896689 23.5840019,23.6945402 C22.0562712,24.5994115 20.8019449,25.8072531 19.8236904,27.3140254 C18.8427685,28.8234907 18.1199138,30.5908174 17.6497915,32.614659 C17.4544074,33.4562432 17.2997004,34.3227382 17.1856708,35.216164 C16.8975958,37.4662234 15.1538089,39.142659 13.0886049,39.142659 L4.15094652,39.142659 C1.64629494,39.142659 -0.315548755,36.7101442 0.0418775609,33.9827382 C0.395969676,31.2883224 0.996792645,28.7426986 1.84434647,26.3445204" id="Fill-1" fill="#DDDDDD"></path>
                        <path d="M21.40822,92.8593251 C19.3355974,84.1602318 25.4280893,77.5711564 33.5089668,79.267522 C36.7896398,79.955855 40.1310419,83.5410584 40.746821,86.8326601 C42.2239075,94.722065 37.1076509,101.198919 28.7982233,99.8118142 C25.2047632,99.2115617 22.2518963,96.4008144 21.40822,92.8593251" id="Fill-4" fill="#CCCCCC"></path>
                        <path d="M41.8834893,85.0312367 C42.4989108,88.940042 41.6246059,93.2707834 38.1168996,95.5822593 C34.624923,97.8825971 29.3856472,97.4318331 26.4809099,94.40359 C23.5755172,91.3753469 23.19604,85.9904206 25.2376142,82.3797223 C27.311303,78.7100577 31.2994182,77.4180423 35.3058847,78.1203955 C36.5432818,78.3372602 37.0741566,76.4437893 35.8282393,76.2249591 C30.9874473,75.3765007 26.0404804,76.8919326 23.5394702,81.3871242 C21.0869595,85.795832 21.5365646,92.1052177 25.0908044,95.7932273 C28.6162065,99.4524089 34.8582458,100.025036 39.1098322,97.2791761 C43.4387559,94.4822116 44.5345864,89.3049774 43.7795644,84.5084029 C43.5835995,83.2629052 41.6881798,83.7916357 41.8834893,85.0312367" id="Fill-7" fill="#999999"></path>
                        <path d="M39.0369553,11.4120378 C40.8080827,11.2869602 42.7865974,10.4032599 43.2153756,8.47339441 C43.7721871,5.96708438 39.989203,2.2038806 44.5030439,2.07200532 C45.7867112,2.034618 45.812718,-0.00537017881 44.5217155,0.032017142 C42.0137297,0.105432245 39.7424722,1.23792818 40.1992577,4.15345944 C40.3159547,4.89236885 40.6460406,5.50688045 40.8927714,6.19548692 C41.5602784,8.0573755 40.9294476,9.24017438 39.0542931,9.37272942 C37.7792948,9.46245899 37.7479533,11.5031269 39.0369553,11.4120378" id="Fill-9" fill="#999999"></path>
                        <path d="M44.4785375,16.5776307 C46.275502,16.4561769 48.2828791,15.5980794 48.7179123,13.7241263 C49.2828465,11.2904297 45.4446766,7.63559415 50.024365,7.50753959 C51.3267583,7.47123546 51.353821,5.49101033 50.0433089,5.52731446 C47.4987368,5.59860257 45.1943464,6.69828759 45.658472,9.52934944 C45.7761949,10.246851 46.111096,10.8435589 46.3614261,11.5122149 C47.0386706,13.3195003 46.3993139,14.468691 44.4968049,14.5974056 C43.2025304,14.6845355 43.1707317,16.6654207 44.4785375,16.5776307" id="Fill-12" fill="#999999"></path>
                        <path d="M53.9538276,14.509786 C60.3360458,21.8703636 61.7693546,32.8042975 57.7381324,41.7376882 C55.8756893,45.8654846 52.9727604,48.9621699 49.4703638,51.7182802 C46.4472773,54.0962717 43.344966,56.5084548 41.1761869,59.7620191 C39.6167787,62.0997852 39.3071418,64.3798949 38.7723743,67.0595769 C37.934572,71.2503931 34.7253072,70.591367 31.5985682,70.591367 C28.8250399,70.591367 25.4698694,70.8930575 25.0473371,67.0595769 C24.6551743,63.5076742 25.8356239,59.1888072 27.2907195,55.9996035 C29.0349856,52.1755089 31.6335592,49.0473137 34.7622788,46.3052823 C37.5846625,43.8320907 40.6737696,41.4292935 42.4206766,37.9920332 C44.9538897,33.0101175 44.1741856,24.5889302 39.4893588,21.1087628 C34.9524183,17.7378743 28.0638215,18.6751261 24.2425451,22.6936435 C22.1265826,24.9187785 20.9507545,27.9309904 20.3625103,30.9190672 C19.9096085,33.2172783 20.0370284,35.2003905 16.9228334,35.8352813 C16.2322571,35.9760702 15.3931344,35.8352813 14.6873734,35.8352813 C12.635451,35.8352813 10.2210751,36.1952987 8.19093944,35.8352813 C2.25370053,34.7827167 6.35688521,24.9851504 7.93543945,21.5592872 C12.4492727,11.7657434 21.4076175,6.23139891 31.9676238,6.05105504 C33.2411625,6.0296015 33.2451238,4.01766112 31.9676238,4.03978509 C23.3459844,4.18727822 15.3053269,7.56084835 9.88370944,14.5352621 C7.27391233,17.8920717 5.39364363,21.8053326 4.23432065,25.9123458 C3.39387751,28.891707 2.12033877,32.8914526 4.09831807,35.6737093 C6.5225971,39.0828119 13.0494006,38.0047712 16.6237597,37.8465513 C19.0321938,37.739954 20.984425,36.5432484 21.7852557,34.1196681 C22.3668979,32.3624886 22.3860439,30.4497708 23.0013565,28.6771716 C24.050425,25.6555737 26.1683681,22.7727534 29.2442711,21.6766113 C34.8916793,19.6653413 40.4631637,22.5816828 41.4363084,28.5819715 C42.444444,34.802159 40.084205,38.9239216 35.5967801,42.9524953 C28.8778564,48.9836234 24.0543862,55.0388868 23.1743307,64.4335288 C22.929394,67.0495206 22.9643849,69.8867521 25.2645451,71.6117512 C26.9342079,72.864102 29.0277233,72.6026369 30.9832556,72.6026369 C32.971138,72.6026369 35.6258292,73.0270149 37.5206224,72.2104393 C40.3951624,70.9721674 40.4387361,68.2777361 40.93059,65.6067696 C42.04832,59.5441315 47.3702463,55.9741274 51.8055149,52.4195429 C55.7733572,49.2403956 58.7258016,45.1675739 60.4370574,40.3264471 C63.7242266,31.0337095 61.7310626,20.4416915 55.354126,13.0878182 C54.5103818,12.1143635 53.1140446,13.5416948 53.9538276,14.509786" id="Fill-14" fill="#999999"></path>
                    </g>
                </g>
            </g>
        </g>
    </g>
</svg>