<?xml version="1.0" encoding="UTF-8"?>
<svg width="24px" height="24px" viewBox="0 0 24 24" version="1.1" xmlns="http://www.w3.org/2000/svg" xmlns:xlink="http://www.w3.org/1999/xlink">
    <!-- Generator: Sketch 47.1 (45422) - http://www.bohemiancoding.com/sketch -->
    <title>icn_alert</title>
    <desc>Created with Sketch.</desc>
    <defs></defs>
    <g id="Page-1" stroke="none" stroke-width="1" fill="none" fill-rule="evenodd">
        <g id="asset" transform="translate(-236.000000, -169.000000)" fill="#FF104F">
            <g id="icon" transform="translate(50.000000, 83.000000)">
                <g id="icn_alert" transform="translate(186.000000, 86.000000)">
                    <g transform="translate(1.000000, 1.000000)" id="Group">
                        <g>
                            <path d="M11,22 C4.92436888,22 0,17.0752059 0,11 C0,4.92479409 4.92436888,0 11,0 C17.0747738,0 22,4.9252262 22,11 C22,17.0747738 17.0747738,22 11,22 Z M11,21 C16.5224753,21 21,16.5224753 21,11 C21,5.47752472 16.5224753,1 11,1 C5.47666197,1 1,5.47704852 1,11 C1,16.5229515 5.47666197,21 11,21 Z" id="Stroke-1" fill-rule="nonzero"></path>
                            <polygon id="Stroke-3" fill-rule="nonzero" points="11.5 13 11.5 7 10.5 7 10.5 13"></polygon>
                            <polygon id="Stroke-5" fill-rule="nonzero" points="10.5 14 10.5 14.9722353 11.5 14.9722353 11.5 14"></polygon>
                        </g>
                    </g>
                </g>
            </g>
        </g>
    </g>
</svg>