<?xml version="1.0" encoding="UTF-8"?>
<svg width="30px" height="30px" viewBox="0 0 30 30" version="1.1" xmlns="http://www.w3.org/2000/svg" xmlns:xlink="http://www.w3.org/1999/xlink">
    <!-- Generator: Sketch 46.2 (44496) - http://www.bohemiancoding.com/sketch -->
    <title>Page 1</title>
    <desc>Created with Sketch.</desc>
    <defs></defs>
    <g id="Symbols" stroke="none" stroke-width="1" fill="none" fill-rule="evenodd">
        <g id="gnb" transform="translate(-30.000000, -15.000000)">
            <g transform="translate(1.000000, 0.000000)" id="Group-5">
                <g transform="translate(29.000000, 15.000000)">
                    <g id="Page-1">
                        <path d="M27,30 L27,30 C25.3431575,30 24,28.6569686 24,26.9997184 C24,25.3430314 25.3431575,24 27,24 C28.6568425,24 30,25.3430314 30,26.9997184 C30,28.6569686 28.6568425,30 27,30" id="Fill-1" fill="#FF104F"></path>
                        <path d="M21.6465958,2.19870304 C21.6465958,0.984786129 20.6847206,0 19.4978907,0 L16.1768357,0 L16.1768357,7.68143764 L16.1768357,9.30122826 L16.1768357,18.9252505 C16.1763185,22.1558358 13.4432485,24.7334249 10.2137267,24.3682973 C7.7614621,24.0915412 5.774621,22.0579393 5.50364111,19.5486132 C5.14733359,16.243944 7.66579172,13.4472784 10.8229143,13.4472784 L10.8229143,7.850243 C4.61675083,7.850243 -0.368968863,13.1948641 0.0214697189,19.631693 C0.356057483,25.1472361 4.74241516,29.6356595 10.1325361,29.9780328 C16.4224758,30.3775564 21.6465958,25.2752954 21.6465958,18.9252505 L21.6465958,9.65206824 C22.7584407,8.63764857 25.7418052,7.90951009 27,7.90951009 L27,2.31247468 C25.0178131,2.49980101 23.2259328,2.84164509 21.6465958,3.76345994 L21.6465958,2.19870304 Z" id="Fill-3" fill="#333333"></path>
                    </g>
                </g>
            </g>
        </g>
    </g>
</svg>