<?xml version="1.0" encoding="UTF-8"?>
<svg width="26px" height="26px" viewBox="0 0 26 26" version="1.1" xmlns="http://www.w3.org/2000/svg" xmlns:xlink="http://www.w3.org/1999/xlink">
    <!-- Generator: Sketch 47.1 (45422) - http://www.bohemiancoding.com/sketch -->
    <title>icn_write</title>
    <desc>Created with Sketch.</desc>
    <defs></defs>
    <g id="Page-1" stroke="none" stroke-width="1" fill="none" fill-rule="evenodd">
        <g id="asset" transform="translate(-162.000000, -83.000000)" fill="#666666">
            <g id="icon" transform="translate(50.000000, 83.000000)">
                <g id="icn_write" transform="translate(112.000000, 0.000000)">
                    <g transform="translate(1.000000, 0.000000)">
                        <path d="M22.4981358,2.51766314 C13.5358162,4.86136596 8.09842565,14.7049178 6.24221301,18.5860897 C7.98592791,17.6861078 10.9296187,16.0173914 13.8545598,13.7861863 L13.048326,13.7861863 C12.6920832,13.7861863 12.3920892,13.4861923 12.3920892,13.1299495 C12.3920892,12.7737067 12.6920832,12.4737127 13.048326,12.4737127 L15.4857769,12.4737127 C16.2357618,11.8362256 16.9482475,11.1612391 17.6419835,10.4675031 L15.5045266,10.4675031 C15.1482837,10.4675031 14.8482898,10.1675092 14.8482898,9.81126632 C14.8482898,9.45502349 15.1482837,9.15502953 15.5045266,9.15502953 L18.860709,9.15502953 C20.5669247,7.14881992 21.9168975,4.91761483 22.4981358,2.51766314 M19.1419533,24.9984606 C18.5232158,24.9984606 17.9982264,24.8484636 17.6982324,24.4922208 C16.9857468,23.6672374 17.6607332,22.4297623 18.2044722,21.5672797 C18.3544692,21.3610338 18.3919684,21.2297865 18.4107181,21.1735376 C18.166973,21.0235406 16.723252,20.5548001 9.24215262,22.5047608 C5.30473188,23.5359901 1.4985585,24.7547155 0.93606982,24.9422117 C0.767323216,25.0172102 0.579826991,25.0172102 0.411080387,24.9609614 C0.242333784,24.8859629 0.0923368033,24.7547155 0.0360879355,24.5484697 C-0.0576601774,24.2672253 0.0360879355,23.985981 0.261083407,23.8172344 L4.32975151,19.711067 C4.38600038,19.5423204 5.92346943,15.6048997 8.99840753,11.3112361 C13.0858253,5.59260124 17.9982264,2.03017295 23.1918718,1.01769333 C23.2293711,1.01769333 23.2668703,0.998943708 23.3231192,0.998943708 C23.3981177,0.998943708 23.4731162,1.01769333 23.5481147,1.03644295 C23.6418628,1.0739422 23.7168613,1.11144144 23.7918598,1.18643993 C23.8668582,1.2426888 23.9231071,1.33643691 23.9606064,1.43018503 C23.979356,1.50518352 23.9981056,1.58018201 23.9981056,1.6551805 C23.9981056,1.69267974 23.9981056,1.74892861 23.979356,1.78642786 C23.2668703,6.43633426 19.8919383,11.0299918 13.9295583,15.4174035 C10.0108872,18.2673461 6.3172115,20.0485603 5.43597924,20.461052 L3.01727793,22.8985029 C4.64849509,22.3922631 6.86095056,21.7547759 9.11090527,21.1735376 C17.2294918,19.0735799 18.9357075,19.5985693 19.5169458,20.3860535 C19.7794405,20.7422963 19.9481871,21.3422842 19.3107,22.2797653 C18.710712,23.1984968 18.710712,23.5547397 18.710712,23.6297382 C19.1232037,23.8922329 21.2231615,23.3672435 23.0793741,22.5422601 C23.4168673,22.3922631 23.7918598,22.5422601 23.9418567,22.8797533 C24.0918537,23.2172465 23.9418567,23.5922389 23.6043635,23.7422359 C22.6106335,24.1922268 20.6044239,24.9984606 19.1419533,24.9984606"></path>
                    </g>
                </g>
            </g>
        </g>
    </g>
</svg>