<?xml version="1.0" encoding="UTF-8"?>
<svg width="26px" height="26px" viewBox="0 0 26 26" version="1.1" xmlns="http://www.w3.org/2000/svg" xmlns:xlink="http://www.w3.org/1999/xlink">
    <!-- Generator: Sketch 47.1 (45422) - http://www.bohemiancoding.com/sketch -->
    <title>icn_link</title>
    <desc>Created with Sketch.</desc>
    <defs></defs>
    <g id="Page-1" stroke="none" stroke-width="1" fill="none" fill-rule="evenodd">
        <g id="asset" transform="translate(-50.000000, -170.000000)" fill="#BBBBBB">
            <g id="icon" transform="translate(50.000000, 83.000000)">
                <g id="icn_link" transform="translate(0.000000, 87.000000)">
                    <g id="btn_link" transform="translate(1.000000, 1.000000)">
                        <path d="M11.2832661,10.6930737 C10.1684087,9.57819727 10.1502026,7.79182463 11.2404281,6.70158042 L17.1359992,0.805908137 C17.681112,0.259715065 18.4007893,-0.00802663742 19.1226086,0.000541097049 C19.8454987,0.00803786471 20.5705308,0.290773102 21.127424,0.848746809 L23.1515166,2.87180311 C24.2663739,3.98667956 24.28458,5.77305219 23.1943545,6.86329641 L17.2987834,12.7600397 C16.7536706,13.3040908 16.0339933,13.5729035 15.312174,13.5654067 C14.5892839,13.556839 13.8642518,13.2741037 13.3073586,12.717201 L14.6192704,11.4041957 C14.8634467,11.6483761 15.1451061,11.6869309 15.291826,11.6890728 C15.437475,11.6901438 15.7191345,11.6569438 15.957956,11.4181182 L21.8535271,5.52244596 C22.2176495,5.15831725 22.2122948,4.55750487 21.8385338,4.18480842 L19.8155122,2.16068115 C19.571336,1.91757168 19.2896765,1.87794591 19.1429566,1.87687495 C18.9973076,1.87473301 18.7156482,1.90793298 18.4768267,2.14675858 L12.5812556,8.04243086 C12.2171331,8.40763054 12.2224878,9.00737196 12.5962488,9.38006841 L11.2832661,10.6930737 Z" id="Fill-1"></path>
                        <path d="M9.38060393,12.5961462 C9.13642056,12.3519657 8.8547529,12.3134109 8.70909966,12.311269 C8.56237544,12.310198 8.28070779,12.343398 8.04187932,12.5822236 L2.14613614,18.4778959 C1.78200304,18.8430956 1.78842892,19.442837 2.16112985,19.8155334 L4.18421048,21.8396607 C4.42839385,22.0827702 4.71006151,22.1223959 4.85678573,22.1234669 C5.00350994,22.1256088 5.28410662,22.0924089 5.52293509,21.8546542 L11.4186783,15.957911 C11.7838823,15.5927113 11.7774565,14.9929699 11.4047555,14.6202734 L12.7167057,13.3072681 C13.8315955,14.4221446 13.8498022,16.2085172 12.7595448,17.2987614 L6.86380166,23.1944337 C6.318673,23.7406268 5.59897465,24.0083685 4.87713434,23.9998008 C4.15422305,23.992304 3.4291698,23.7095688 2.87226037,23.151595 L0.848108757,21.1285387 C-0.265710118,20.0136623 -0.284987753,18.2272897 0.805269569,17.1370454 L6.70101275,11.2403022 C7.24614141,10.6962511 7.96583976,10.4274384 8.68875105,10.4349352 C9.41059136,10.4435029 10.1367156,10.7262381 10.693625,11.2831409 L9.38060393,12.5961462 Z" id="Fill-3"></path>
                        <path d="M14.8504081,9.14959188 C14.4770392,8.776223 13.8703148,8.776223 13.4969459,9.14959188 L12.8435504,9.80195028 L11.4900882,11.1564496 L10.6354883,12.0110495 L9.280989,13.3645117 L8.6286306,14.0179072 C8.25422458,14.3912761 8.25422458,14.9980005 8.6286306,15.3713694 C9.00199948,15.7457754 9.60872391,15.7457754 9.98209279,15.3713694 L10.6354883,14.719011 L11.9889505,13.3645117 L12.8435504,12.5099118 L14.1980497,11.1564496 L14.8504081,10.5030541 C15.223777,10.1296852 15.223777,9.52296076 14.8504081,9.14959188" id="Fill-6"></path>
                    </g>
                </g>
            </g>
        </g>
    </g>
</svg>