<?xml version="1.0" encoding="UTF-8"?>
<svg width="42px" height="104px" viewBox="0 0 42 104" version="1.1" xmlns="http://www.w3.org/2000/svg" xmlns:xlink="http://www.w3.org/1999/xlink">
    <!-- Generator: Sketch 47.1 (45422) - http://www.bohemiancoding.com/sketch -->
    <title>img_Exclamation2</title>
    <desc>Created with Sketch.</desc>
    <defs>
        <polygon id="path-1" points="22.7839812 24.3913043 0.261315465 24.3913043 0.261315465 0.601409787 22.7839812 0.601409787 22.7839812 24.3913043"></polygon>
        <polygon id="path-3" points="0.115622273 0.0923913043 30.3296931 0.0923913043 30.3296931 70.2217402 0.115622273 70.2217402"></polygon>
    </defs>
    <g id="Page-1" stroke="none" stroke-width="1" fill="none" fill-rule="evenodd">
        <g id="asset" transform="translate(-203.000000, -302.000000)">
            <g id="img" transform="translate(50.000000, 302.000000)">
                <g id="img_Exclamation2" transform="translate(153.000000, 0.000000)">
                    <g transform="translate(1.000000, 1.000000)">
                        <g id="Group-3" stroke-width="1" transform="translate(4.702467, 77.516304)">
                            <mask id="mask-2" fill="white">
                                <use xlink:href="#path-1"></use>
                            </mask>
                            <g id="Clip-2"></g>
                            <path d="M0.721025641,16.3020391 C-1.61302371,6.44721304 5.2479342,-1.01726522 14.3480793,0.904473913 C18.0425544,1.68425652 21.8046831,5.74577826 22.4988679,9.4746913 C24.1622642,18.4122565 18.4006773,25.7496043 9.04315433,24.178213 C4.99643928,23.498213 1.67111756,20.3140391 0.721025641,16.3020391" id="Fill-1" fill="#BB8CFE" mask="url(#mask-2)"></path>
                        </g>
                        <path d="M2.97374359,62.3146826 L0.0234581519,16.716987 C-0.394229318,10.2643783 4.81362748,4.80442174 11.3855868,4.80442174 L17.2861577,4.80442174 C23.8588524,4.80442174 29.0667092,10.2643783 28.6490218,16.716987 L25.6987363,62.3146826 C25.3170818,68.2122043 20.3438065,72.8044217 14.3366076,72.8044217 C8.32867344,72.8044217 3.35539816,68.2122043 2.97374359,62.3146826" id="Fill-4" fill="#78FFEC"></path>
                        <g id="Group-9" stroke-width="1" transform="translate(4.102564, 0.000000)">
                            <mask id="mask-4" fill="white">
                                <use xlink:href="#path-3"></use>
                            </mask>
                            <g id="Clip-8"></g>
                            <path d="M25.4476826,54.7811696 C25.3109047,56.9357348 25.3770876,59.2647348 24.6453991,61.3187783 C23.2327625,65.2819957 19.3875375,68.0019957 15.1996323,68.0019957 C9.08433478,68.0019957 5.55458152,63.0527783 5.11998065,57.4383435 C4.51698113,49.6464304 4.13164973,41.8308652 3.63748428,34.0323 C3.20214804,27.153213 2.50428641,20.2349522 2.32779874,13.3433 C2.15792937,6.72956087 6.77749395,2.38716957 13.2170876,2.30956087 C19.4316594,2.2349087 26.4521916,2.88312609 27.9251282,10.4318652 C28.6582874,14.187387 27.7346686,18.6620826 27.4971456,22.4190826 C27.2544751,26.2507348 27.0118045,30.082387 26.769134,33.9147783 C26.6786841,35.3398217 28.8847799,35.3339087 28.9752298,33.9147783 L29.7936913,20.987387 C30.0620997,16.7506913 31.0445477,11.7889087 29.3988002,7.73847391 C26.875762,1.53051739 21.2171263,0.0921695652 15.1996323,0.0921695652 C9.09977746,0.0921695652 3.30362845,1.65173478 0.889424286,8.00308261 C-0.332752782,11.2183 0.206269956,14.6818652 0.417319787,18.0234739 C0.740145138,23.1160826 1.06297049,28.2079522 1.38506047,33.3005609 C1.91820029,41.7192565 2.1380745,50.2259087 2.98815675,58.6194739 C3.72425738,65.884387 10.1285535,71.4286043 17.5175036,69.9946913 C25.3197291,68.4809522 27.2169715,61.6713435 27.6537784,54.7811696 C27.7442284,53.3561261 25.5373972,53.3620391 25.4476826,54.7811696" id="Fill-7" fill="#333333" mask="url(#mask-4)"></path>
                        </g>
                        <path d="M29.3696604,84.0485913 C30.0601684,88.4582435 29.0791911,93.3438957 25.1435162,95.9515478 C21.2247547,98.5466348 15.3469802,98.038113 12.0878413,94.6218522 C8.8279671,91.2055913 8.40292598,85.1306783 10.6928534,81.0573304 C13.0195491,76.9174609 17.4942467,75.4598957 21.9887992,76.2522435 C23.3779042,76.4968957 23.9735501,74.3608087 22.5756207,74.1139391 C17.1442129,73.1567652 11.5944112,74.8663739 8.78752201,79.9375478 C6.0357852,84.9111565 6.54024577,92.0289826 10.5273962,96.1895478 C14.4836613,100.317591 21.4872801,100.963591 26.2568592,97.8658957 C31.1154175,94.7105478 32.3442129,88.8699391 31.4970721,83.4587652 C31.2764625,82.0536783 29.1505215,82.6501565 29.3696604,84.0485913" id="Fill-10" fill="#333333"></path>
                        <path d="M25.8420776,40.4436776 C26.9840517,41.9861194 28.9657788,43.3127463 31.0467427,42.6772913 C33.7486878,41.8500008 35.1380019,36.4137221 37.8707705,40.4436776 C38.6481248,41.5897534 40.600532,40.5297214 39.818667,39.3758875 C38.3000445,37.1373368 35.9131008,35.6760019 33.4073737,37.6416102 C32.7728601,38.1395361 32.380424,38.7665277 31.8692046,39.3561397 C30.4859049,40.9528879 28.9981059,41.0086048 27.7899741,39.3758875 C26.9675122,38.2650755 25.0120978,39.3215811 25.8420776,40.4436776" id="Fill-12" fill="#333333"></path>
                        <path d="M24.2626957,48.3219826 C25.3797155,49.9384609 27.3181384,51.3287652 29.3536294,50.6628087 C31.9965322,49.7958087 33.3554872,44.0985913 36.0285399,48.3219826 C36.7889076,49.5230696 38.6986512,48.4121565 37.9338713,47.2029391 C36.4484335,44.8569391 34.1136488,43.3254609 31.6626763,45.3854174 C31.0420281,45.9072435 30.6581674,46.5643304 30.158119,47.1822435 C28.8050469,48.8556348 27.3497591,48.9140261 26.1680271,47.2029391 C25.3635375,46.0388087 23.4508524,47.1460261 24.2626957,48.3219826" id="Fill-15" fill="#333333"></path>
                    </g>
                </g>
            </g>
        </g>
    </g>
</svg>