<?xml version="1.0" encoding="UTF-8"?>
<svg width="22px" height="22px" viewBox="0 0 22 22" version="1.1" xmlns="http://www.w3.org/2000/svg" xmlns:xlink="http://www.w3.org/1999/xlink">
    <!-- Generator: Sketch 47.1 (45422) - http://www.bohemiancoding.com/sketch -->
    <title>my_setting</title>
    <desc>Created with Sketch.</desc>
    <defs></defs>
    <g id="Page-1" stroke="none" stroke-width="1" fill="none" fill-rule="evenodd">
        <g id="asset" transform="translate(-50.000000, -124.000000)" fill="#666666">
            <g id="icon" transform="translate(50.000000, 83.000000)">
                <g id="my_setting" transform="translate(0.000000, 41.000000)">
                    <g id="icon_setting" transform="translate(1.000000, 1.000000)">
                        <path d="M13.7743988,9.93506494 C13.7743988,11.9792208 12.0543513,13.6363636 9.93260002,13.6363636 C7.8108487,13.6363636 6.09080125,11.9792208 6.09080125,9.93506494 C6.09080125,7.89090909 7.8108487,6.23376623 9.93260002,6.23376623 C12.0543513,6.23376623 13.7743988,7.89090909 13.7743988,9.93506494 L13.7743988,9.93506494 Z M17.4862504,11.3454545 C17.5702308,10.9090909 17.6161976,10.4598701 17.6161976,10 C17.6161976,9.48961039 17.5618732,8.99155844 17.458886,8.51064935 L19.9326,6.57467532 L17.9780006,3.31298701 L14.9513372,4.42701299 C14.2080503,3.81350649 13.3411517,3.33597403 12.3909468,3.03324675 L11.8871994,0 L7.97800065,0 L7.46656961,3.07974026 C6.52350911,3.40025974 5.66577699,3.89402597 4.93448722,4.52220779 L1.95459937,3.42532468 L0,6.68701299 L2.5137496,8.65454545 C2.42976922,9.09090909 2.38380244,9.54012987 2.38380244,10 C2.38380244,10.5103896 2.43812682,11.0084416 2.54111399,11.4893506 L0.0673999784,13.4253247 L2.02199935,16.687013 L5.04866278,15.572987 C5.79194975,16.1864935 6.65884827,16.664026 7.60905317,16.9667532 L8.1128006,20 L12.0219994,20 L12.5334304,16.9202597 C13.4764909,16.5997403 14.334223,16.105974 15.0655128,15.4777922 L18.0454006,16.5746753 L20,13.312987 L17.4862504,11.3454545 Z" id="Page-1"></path>
                    </g>
                </g>
            </g>
        </g>
    </g>
</svg>