<?xml version="1.0" encoding="UTF-8"?>
<svg width="20px" height="20px" viewBox="0 0 20 20" version="1.1" xmlns="http://www.w3.org/2000/svg" xmlns:xlink="http://www.w3.org/1999/xlink">
    <!-- Generator: Sketch 47.1 (45422) - http://www.bohemiancoding.com/sketch -->
    <title>upload_link</title>
    <desc>Created with Sketch.</desc>
    <defs></defs>
    <g id="Page-1" stroke="none" stroke-width="1" fill="none" fill-rule="evenodd">
        <g id="asset" transform="translate(-279.000000, -57.000000)" fill="#666666">
            <g id="upload_link" transform="translate(279.000000, 57.000000)">
                <g transform="translate(1.000000, 1.000000)" id="Page-1">
                    <g>
                        <path d="M8.46244954,8.01980528 C7.62630656,7.18364795 7.61265196,5.84386847 8.43032109,5.02618531 L12.8519994,0.604431103 C13.260834,0.194786299 13.800592,-0.00601997806 14.3419564,0.000405822786 C14.8841241,0.00602839853 15.4278981,0.218079827 15.845568,0.636560107 L17.3636374,2.15385233 C18.1997804,2.99000967 18.213435,4.32978915 17.3957659,5.1474723 L12.9740875,9.57002974 C12.565253,9.97806809 12.025495,10.1796776 11.4841305,10.174055 C10.9419629,10.1676292 10.3981888,9.95557779 9.98051894,9.53790074 L10.9644528,8.55314676 C11.147585,8.73628208 11.3588296,8.76519818 11.4688695,8.76680463 C11.5781063,8.76760786 11.7893508,8.74270788 11.968467,8.56358868 L16.3901453,4.14183447 C16.6632371,3.86873794 16.6592211,3.41812865 16.3789003,3.13860631 L14.8616341,1.62051086 C14.678502,1.43817876 14.4672574,1.40845943 14.3572174,1.40765621 C14.2479807,1.40604976 14.0367361,1.43094974 13.85762,1.61006894 L9.43594167,6.03182315 C9.16284982,6.30572291 9.16686587,6.75552897 9.44718662,7.0350513 L8.46244954,8.01980528 Z" id="Fill-1"></path>
                        <path d="M7.03545294,9.44710964 C6.85231542,9.26397431 6.64106467,9.23505821 6.53182475,9.23345176 C6.42178158,9.23264853 6.21053084,9.25754851 6.03140949,9.43666771 L1.6096021,13.8584219 C1.33650228,14.1323217 1.34132169,14.5821277 1.62084739,14.8616501 L3.13815786,16.3797455 C3.32129539,16.5620776 3.53254613,16.591797 3.64258929,16.5926002 C3.75263246,16.5942066 3.96307997,16.5693067 4.14220132,16.3909907 L8.5640087,11.9684332 C8.83791176,11.6945335 8.83309235,11.2447274 8.55356665,10.9652051 L9.53752924,9.98045111 C10.3736966,10.8166084 10.3873516,12.1563879 9.56965863,12.9740711 L5.14785125,17.3958253 C4.73900475,17.8054701 4.19923099,18.0062764 3.65785076,17.9998506 C3.11566729,17.994228 2.57187735,17.7821766 2.15419527,17.3636963 L0.636081567,15.8464041 C-0.199282589,15.0102467 -0.213740814,13.6704672 0.603952177,12.8527841 L5.02575956,8.43022665 C5.43460606,8.0221883 5.97437982,7.8205788 6.51656329,7.82620137 C7.05794352,7.83262717 7.60253669,8.0446786 8.02021877,8.46235566 L7.03545294,9.44710964 Z" id="Fill-3"></path>
                        <path d="M11.1378061,6.86219391 C10.8577794,6.58216725 10.4027361,6.58216725 10.1227095,6.86219391 L9.6326628,7.35146271 L8.61756615,8.3673372 L7.97661624,9.00828711 L6.96074175,10.0233838 L6.47147295,10.5134304 C6.19066844,10.7934571 6.19066844,11.2485004 6.47147295,11.5285271 C6.75149961,11.8093316 7.20654293,11.8093316 7.48656959,11.5285271 L7.97661624,11.0392582 L8.99171289,10.0233838 L9.6326628,9.38243385 L10.6485373,8.3673372 L11.1378061,7.87729055 C11.4178328,7.59726389 11.4178328,7.14222057 11.1378061,6.86219391" id="Fill-6"></path>
                    </g>
                </g>
            </g>
        </g>
    </g>
</svg>