<?xml version="1.0" encoding="UTF-8"?>
<svg width="20px" height="14px" viewBox="0 0 20 14" version="1.1" xmlns="http://www.w3.org/2000/svg" xmlns:xlink="http://www.w3.org/1999/xlink">
    <!-- Generator: Sketch 47.1 (45422) - http://www.bohemiancoding.com/sketch -->
    <title>upload_font</title>
    <desc>Created with Sketch.</desc>
    <defs></defs>
    <g id="Page-1" stroke="none" stroke-width="1" fill="none" fill-rule="evenodd">
        <g id="asset" transform="translate(-201.000000, -72.000000)" fill="#666666">
            <g id="upload_font" transform="translate(201.000000, 72.000000)">
                <g transform="translate(1.000000, 1.000000)" id="AA">
                    <path d="M4.01860465,7.05405405 L7.0411449,7.05405405 L6.66332737,5.74054054 C6.26833631,4.49189189 5.92486583,3.11351351 5.5470483,1.81621622 L5.4783542,1.81621622 C5.15205725,3.12972973 4.77423971,4.49189189 4.39642218,5.74054054 L4.01860465,7.05405405 Z M8.48372093,12 L7.59069767,8.91891892 L3.46905188,8.91891892 L2.57602862,12 L0,12 L4.07012522,0 L7.05831843,0 L11.1456172,12 L8.48372093,12 Z M13.5456172,8.90878378 L15.4347048,8.90878378 L15.1985689,8.08783784 C14.9516995,7.30743243 14.7370304,6.44594595 14.5008945,5.63513514 L14.4579606,5.63513514 C14.254025,6.45608108 14.0178891,7.30743243 13.7817531,8.08783784 L13.5456172,8.90878378 Z M16.3363148,12 L15.7781753,10.0743243 L13.2021467,10.0743243 L12.6440072,12 L11.0339893,12 L13.5778175,4.5 L15.4454383,4.5 L18,12 L16.3363148,12 Z"></path>
                </g>
            </g>
        </g>
    </g>
</svg>