<?xml version="1.0" encoding="UTF-8"?>
<svg width="20px" height="12px" viewBox="0 0 20 12" version="1.1" xmlns="http://www.w3.org/2000/svg" xmlns:xlink="http://www.w3.org/1999/xlink">
    <!-- Generator: Sketch 47.1 (45422) - http://www.bohemiancoding.com/sketch -->
    <title>upload_video</title>
    <desc>Created with Sketch.</desc>
    <defs></defs>
    <g id="Page-1" stroke="none" stroke-width="1" fill="none" fill-rule="evenodd">
        <g id="asset" transform="translate(-253.000000, -72.000000)" fill="#666666">
            <g id="upload_video" transform="translate(253.000000, 72.000000)">
                <g transform="translate(1.000000, 1.000000)" id="Group-3">
                    <g>
                        <path d="M0,0.958586276 L0,9.03704704 L9.99200722e-16,9.03704704 C1.02963664e-15,9.28557518 0.201471863,9.48704704 0.45,9.48704704 C0.555540984,9.48704704 0.657724257,9.44995082 0.73868518,9.38224389 L5.58576164,5.32867524 L5.58576164,5.32867524 C5.7764086,5.16923882 5.80170973,4.88544017 5.64227331,4.69479321 C5.62481275,4.67391465 5.605494,4.65466324 5.5845546,4.63727568 L0.737478146,0.612383568 L0.737478146,0.612383568 C0.546275669,0.453613772 0.262567087,0.479905654 0.103797291,0.671108131 C0.0367183372,0.75188963 -1.14999948e-16,0.85358515 -5.55111512e-17,0.958586276 Z" id="Path-9"></path>
                        <rect id="Rectangle-12" x="6" y="0" width="12" height="10" rx="1.5"></rect>
                    </g>
                </g>
            </g>
        </g>
    </g>
</svg>