<?xml version="1.0" encoding="UTF-8"?>
<svg width="46px" height="37px" viewBox="0 0 46 37" version="1.1" xmlns="http://www.w3.org/2000/svg" xmlns:xlink="http://www.w3.org/1999/xlink">
    <!-- Generator: Sketch 47 (45396) - http://www.bohemiancoding.com/sketch -->
    <title>Combined Shape</title>
    <desc>Created with Sketch.</desc>
    <defs></defs>
    <g id="Page-1" stroke="none" stroke-width="1" fill="none" fill-rule="evenodd">
        <g id="마이페이지---post" transform="translate(-166.000000, -315.000000)" fill="#F5A623">
            <g id="Group-4-Copy" transform="translate(151.000000, 294.000000)">
                <g id="Group-6" transform="translate(15.000000, 21.000000)">
                    <path d="M0.2,9.4 L9.32,9.4 L9.32,18.52 L0.2,18.52 L0.2,9.4 Z M9.32,18.52 L18.44,18.52 L18.44,27.64 L9.32,27.64 L9.32,18.52 Z M18.44,18.52 L27.56,18.52 L27.56,27.64 L18.44,27.64 L18.44,18.52 Z M18.44,0.28 L27.56,0.28 L27.56,9.4 L18.44,9.4 L18.44,0.28 Z M18.44,27.64 L27.56,27.64 L27.56,36.76 L18.44,36.76 L18.44,27.64 Z M27.56,18.52 L36.68,18.52 L36.68,27.64 L27.56,27.64 L27.56,18.52 Z M36.68,9.4 L45.8,9.4 L45.8,18.52 L36.68,18.52 L36.68,9.4 Z" id="Combined-Shape"></path>
                </g>
            </g>
        </g>
    </g>
</svg>